<?xml version="1.0"?><svg fill="#000000" xmlns="http://www.w3.org/2000/svg" viewBox="0 0 50 50" width="32px" height="32px">    <path d="M 24.505859 4.0078125 C 23.980484 4.0080625 23.454344 4.1114062 22.964844 4.3164062 L 4.2226562 11.646484 C 3.4796562 11.959484 3 12.683281 3 13.488281 C 2.999 14.293281 3.4771406 15.017797 4.2441406 15.341797 L 23.236328 22.775391 C 23.611328 22.934391 24.015062 23.013672 24.414062 23.013672 C 24.803062 23.013672 25.188016 22.937062 25.541016 22.789062 L 45.771484 15.330078 C 46.519484 15.018078 47 14.292422 47 13.482422 C 46.999 12.672422 46.516047 11.949859 45.748047 11.630859 L 26.046875 4.3144531 C 25.556875 4.1104531 25.031234 4.0075625 24.505859 4.0078125 z M 1.9980469 17.001953 C 0.94204687 17.001953 -2.9605947e-16 17.853906 0 19.003906 L 0 34.970703 C 0 36.129703 0.95195312 36.974609 2.0019531 36.974609 C 2.2979531 36.974609 2.6015312 36.906766 2.8945312 36.759766 L 20.878906 27.835938 C 22.409906 27.069937 22.333906 24.858219 20.753906 24.199219 L 2.7695312 17.15625 C 2.5145312 17.05025 2.2520469 17.001953 1.9980469 17.001953 z M 48.001953 17.001953 C 47.760953 17.001953 47.514484 17.045625 47.271484 17.140625 L 28.271484 24.505859 C 27.505484 24.806859 27 25.544188 27 26.367188 L 27 42.998047 C 27 44.146047 27.940047 45 28.998047 45 C 29.239047 45 29.485516 44.956328 29.728516 44.861328 L 48.728516 37.425781 C 49.495516 37.125781 50 36.387453 50 35.564453 L 50 19.003906 C 50 17.855906 49.059953 17.001953 48.001953 17.001953 z"/></svg>