<svg width="251" height="256" viewBox="0 0 251 256" xmlns="http://www.w3.org/2000/svg"><title>logo_googleg_48dp</title>
    <g fill="none" fill-rule="evenodd">
        <path d="M250.88 130.91c0-9.077-.815-17.805-2.327-26.183H128v49.513h68.887c-2.967 16-11.985 29.556-25.542 38.633v32.116h41.368c24.203-22.284 38.167-55.098 38.167-94.08z" fill="#4285F4"/>
        <path d="M128 256c34.56 0 63.535-11.462 84.713-31.01l-41.368-32.117c-11.461 7.68-26.123 12.218-43.345 12.218-33.338 0-61.556-22.516-71.622-52.771H13.615v33.164C34.676 227.316 77.964 256 128 256z" fill="#34A853"/>
        <path d="M56.378 152.32c-2.56-7.68-4.014-15.884-4.014-24.32s1.454-16.64 4.014-24.32V70.516H13.615A127.95 127.95 0 0 0 0 128a127.95 127.95 0 0 0 13.615 57.484l42.763-33.164z" fill="#FBBC05"/>
        <path d="M128 50.91c18.793 0 35.665 6.457 48.93 19.14l36.714-36.712C191.476 12.684 162.502 0 128 0 77.964 0 34.676 28.684 13.615 70.516l42.763 33.164C66.444 73.425 94.662 50.91 128 50.91z" fill="#EA4335"/>
        <path d="M0 0h256v256H0z"/></g></svg>
