<svg id="Layer_1" data-name="Layer 1" xmlns="http://www.w3.org/2000/svg" viewBox="0 0 2381.34 2354.5"><defs><style>.cls-1{fill:#fff;}</style></defs><title>teams_logo</title><path d="M2015.6,899.2c83.28,83,218.1,82.82,301.13-.47s82.81-218.1-.47-301.13-218.1-82.81-301.13.47A212.93,212.93,0,0,0,1969.8,831.3,217.51,217.51,0,0,0,2015.6,899.2ZM1953.2,1097v642.1h107a609.51,609.51,0,0,0,109.5-10.4,341.31,341.31,0,0,0,103.7-36.2,231.3,231.3,0,0,0,77.3-68.2,176.8,176.8,0,0,0,30.5-106.5V1097ZM1606.4,827.8a207.05,207.05,0,0,0,82.8-16.7c108.56-45.92,159.33-171.15,113.41-279.7A213.44,213.44,0,0,0,1689,417.9a207.15,207.15,0,0,0-82.9-16.7,204.28,204.28,0,0,0-82.3,16.7c-19.4,8.3-25.5,19.1-52.2,32.1V779c26.8,13.1,32.8,23.8,52.2,32.1A204.11,204.11,0,0,0,1606.4,827.8ZM1471.6,1908.9c26.8,5.8,36.4,10.3,55.4,12.9a455.1,455.1,0,0,0,62.8,4.6,474.29,474.29,0,0,0,96.5-10.4,285.16,285.16,0,0,0,91.5-35.7,210.08,210.08,0,0,0,68.2-67.7,194.66,194.66,0,0,0,26.9-106.4v-743H1471.6v945.7ZM0,2113.7l1391.3,240.8V0L0,240.8Z"/><path class="cls-1" d="M1016.7,722.4,374.6,761.5V909.6l240.8-9.7v686.7l160.5,9.4V893.6l240.8-10.7Z"/></svg>